<svg id="图层_1" data-name="图层 1" xmlns="http://www.w3.org/2000/svg" viewBox="0 0 1053 170.33"><defs><style>.cls-1{fill:#2468a2;}.cls-2{fill:#fff;}</style></defs><g id="root"><g id="content"><path class="cls-1" d="M120,16,101,186.33h958.38L1078.33,16M82.11,16,63.18,186.33H82.11L101,16M44.26,16,25.33,186.33H44.26L63.18,16" transform="translate(-25.33 -16)"/><g id="name_and_slogan_id" data-name="name and slogan id"><g id="nameDefaultGroup"><path id="namepathdata" class="cls-2" d="M182,144.88l2.65-15.52H142.86l7.76-57.53h68.13l-10.6,77a10.09,10.09,0,0,1-3.41,6.43,10.28,10.28,0,0,1-7,2.65H138.89l2.46-18.17,5.48,5.11H182m-6.62-60-4.73,31.22H186l5.11-31.22H175.41M293.13,71.83a6.75,6.75,0,0,1,6.05,3.22,13.91,13.91,0,0,1,1.89,7.19h0l-6.43,47.12H235.78a7.21,7.21,0,0,1-6.05-2.65,10.71,10.71,0,0,1-1.9-6.43h0l6.44-48.45h58.86M259.06,84.89,254,116.3h15.71L275,84.89h-15.9m97.09,60,2.65-15.52H317l7.76-57.53h68.13l-10.6,77a10.12,10.12,0,0,1-3.4,6.43,10.32,10.32,0,0,1-7,2.65H313l2.46-18.17,5.49,5.11h35.2m-6.63-60-4.73,31.22h15.33l5.11-31.22H349.52M469.13,71.83a6.77,6.77,0,0,1,6.06,3.22,13.91,13.91,0,0,1,1.89,7.19h0l-6.44,47.12H411.79a7.24,7.24,0,0,1-6.06-2.65,10.77,10.77,0,0,1-1.89-6.43h0l6.43-48.45h58.86M435.06,84.89,430,116.3h15.71L451,84.89h-15.9m126.61,0H519.85l-5.3,31.41h36.53l6.62-5.3-2.65,18.36H487.11l9.08-57.53H563l-1.33,13.06M612,44.39l-3.79,27.44h41.83l-7.95,57.53H616l6.43-44.47H606.91l-6.63,44.47H574.17L585.9,48.17l-2.65-3.78H612m83.27,27.44-6.06,40.88L705.7,111,711,75.61l-4-3.78h30.09l-8,57.53H703.05l.75-5.3-42.58,5.3,7.95-53.75-4-3.78h30.09M822.84,84.89H781l-5.3,31.41h36.52l6.63-5.3-2.65,18.36H748.28l9.08-57.53h66.81l-1.33,13.06m50.34-40.5-5.11,37.85,17-11.74h28.76L877.16,95.3l28.76,34.06H877.16l-13.06-17-2.65,17H835.33l11.74-81.19-3.79-3.78h29.9m80.06,0L942.83,116.3l9.08,13.06H924.66a7.24,7.24,0,0,1-6.06-2.65,10.77,10.77,0,0,1-1.89-6.43h0l10.41-72.11-4-3.78h30.09m81.94,61.32H993.36L992,116.3h36.72l6.43-5.3-4,18.36H973.87a7.24,7.24,0,0,1-6.06-2.65,10.77,10.77,0,0,1-1.89-6.43h0l6.43-48.45h68.13l-5.3,33.88m-38-20.82L996,92.65h15.71l1.32-7.76h-15.9" transform="translate(-25.33 -16)"/></g></g></g></g></svg>